<svg xmlns="http://www.w3.org/2000/svg" version="1.1" xmlns:xlink="http://www.w3.org/1999/xlink" xmlns:svgjs="http://svgjs.dev/svgjs" width="2000" height="1500" viewBox="0 0 2000 1500"><rect width="2000" height="1500" fill="#ffffff"></rect><g transform="matrix(0.75,0,0,0.75,249.0909120710528,601.2413335405473)"><svg viewBox="0 0 396 79" data-background-color="#ffffff" preserveAspectRatio="xMidYMid meet" height="398" width="2000" xmlns="http://www.w3.org/2000/svg" xmlns:xlink="http://www.w3.org/1999/xlink"><g id="tight-bounds" transform="matrix(1,0,0,1,0.23999921324207207,-0.1300346723726591)"><svg viewBox="0 0 395.52 79.26006764374294" height="79.26006764374294" width="395.52"><g><svg viewBox="0 0 395.52 79.26006764374294" height="79.26006764374294" width="395.52"><g><svg viewBox="0 0 395.52 79.26006764374294" height="79.26006764374294" width="395.52"><g id="textblocktransform"><svg viewBox="0 0 395.52 79.26006764374294" height="79.26006764374294" width="395.52" id="textblock"><g><svg viewBox="0 0 395.52 79.26006764374294" height="79.26006764374294" width="395.52"><g transform="matrix(1,0,0,1,0,0)"><svg width="395.52" viewBox="3.8499999046325684 -35.25 177.38999938964844 35.54999923706055" height="79.26006764374294" data-palette-color="#000000"><path d="M3.85-34.85L8.4-34.85 8.4 0 3.85 0 3.85-34.85ZM46.65-34.6L51.5-34.6 51.5 0 46.95 0 46.95-25.8 35.45 0 32.25 0 20.7-25.85 20.7 0 16.15 0 16.15-34.6 21.05-34.6 33.85-6 46.65-34.6ZM82.59 0L79.8-7.75 64.59-7.75 61.8 0 57 0 69.59-34.65 74.84-34.65 87.4 0 82.59 0ZM65.9-11.45L78.5-11.45 72.2-29.05 65.9-11.45ZM124.74-24.75L119.29-24.75Q117.84-27.8 115.09-29.48 112.34-31.15 108.69-31.15L108.69-31.15Q105.04-31.15 102.12-29.48 99.19-27.8 97.52-24.68 95.84-21.55 95.84-17.45L95.84-17.45Q95.84-13.35 97.52-10.25 99.19-7.15 102.12-5.48 105.04-3.8 108.69-3.8L108.69-3.8Q113.79-3.8 117.09-6.85 120.39-9.9 120.94-15.1L120.94-15.1 107.04-15.1 107.04-18.8 125.79-18.8 125.79-15.3Q125.39-11 123.09-7.43 120.79-3.85 117.04-1.78 113.29 0.3 108.69 0.3L108.69 0.3Q103.84 0.3 99.84-1.98 95.84-4.25 93.52-8.3 91.19-12.35 91.19-17.45L91.19-17.45Q91.19-22.55 93.52-26.63 95.84-30.7 99.84-32.98 103.84-35.25 108.69-35.25L108.69-35.25Q114.24-35.25 118.52-32.5 122.79-29.75 124.74-24.75L124.74-24.75ZM150.54-31.15L136.34-31.15 136.34-19.5 149.04-19.5 149.04-15.75 136.34-15.75 136.34-3.75 150.54-3.75 150.54 0 131.79 0 131.79-34.9 150.54-34.9 150.54-31.15ZM181.24 0L175.79 0 167.49-14.25 161.99-14.25 161.99 0 157.44 0 157.44-34.85 168.69-34.85Q172.64-34.85 175.36-33.5 178.09-32.15 179.44-29.85 180.79-27.55 180.79-24.6L180.79-24.6Q180.79-21 178.71-18.25 176.64-15.5 172.49-14.6L172.49-14.6 181.24 0ZM161.99-31.1L161.99-17.9 168.69-17.9Q172.39-17.9 174.24-19.73 176.09-21.55 176.09-24.6L176.09-24.6Q176.09-27.7 174.26-29.4 172.44-31.1 168.69-31.1L168.69-31.1 161.99-31.1Z" opacity="1" transform="matrix(1,0,0,1,0,0)" fill="#000000" class="undefined-text-0" data-fill-palette-color="primary" id="text-0"></path></svg></g></svg></g></svg></g></svg></g><g></g></svg></g><defs></defs></svg><rect width="395.52" height="79.26006764374294" fill="none" stroke="none" visibility="hidden"></rect></g></svg></g></svg>